<svg width="65" height="53" viewBox="0 0 65 53" fill="none" xmlns="http://www.w3.org/2000/svg">
<path d="M15.9732 46.2537V43.6172C15.9885 43.3955 15.9565 43.173 15.8791 42.9646C15.8018 42.7563 15.6809 42.5668 15.5246 42.4088C15.3682 42.2508 15.18 42.1279 14.9725 42.0484C14.7649 41.9688 14.5428 41.9344 14.3209 41.9474C14.0305 41.9284 13.7403 41.9876 13.4806 42.119C13.2209 42.2504 13.0012 42.4491 12.8445 42.6944C12.7016 42.4565 12.4973 42.2615 12.2529 42.1301C12.0085 41.9986 11.7332 41.9355 11.4559 41.9474C11.2142 41.9352 10.9736 41.9863 10.7577 42.0958C10.5419 42.2052 10.3585 42.3692 10.2255 42.5714V42.0529H9.31152V46.2537H10.2343V43.9424C10.2147 43.7987 10.227 43.6525 10.2705 43.5142C10.3139 43.3759 10.3874 43.2488 10.4856 43.1422C10.5839 43.0356 10.7045 42.952 10.8388 42.8973C10.9731 42.8427 11.1178 42.8184 11.2626 42.8262C11.869 42.8262 12.1766 43.2217 12.1766 43.9336V46.2713H13.0994V43.9424C13.0805 43.7989 13.0934 43.653 13.1372 43.515C13.1809 43.377 13.2544 43.2503 13.3525 43.1439C13.4506 43.0374 13.5708 42.9538 13.7047 42.8989C13.8387 42.844 13.983 42.8192 14.1276 42.8262C14.7516 42.8262 15.0504 43.2217 15.0504 43.9336V46.2713L15.9732 46.2537ZM29.6261 42.0529H28.1232V40.7785H27.2004V42.0529H26.3655V42.8878H27.218V44.8212C27.218 45.7967 27.5959 46.3768 28.6769 46.3768C29.0808 46.3781 29.4768 46.2654 29.8194 46.0516L29.5557 45.2694C29.3106 45.4156 29.0324 45.4973 28.7472 45.5067C28.3078 45.5067 28.1408 45.2255 28.1408 44.8037V42.8878H29.6348L29.6261 42.0529ZM37.4214 41.9474C37.1986 41.9408 36.9781 41.9945 36.7832 42.1028C36.5883 42.2111 36.4262 42.3699 36.3141 42.5626V42.0529H35.4089V46.2537H36.3229V43.8984C36.3229 43.2042 36.6217 42.8175 37.2017 42.8175C37.3972 42.8148 37.5913 42.8506 37.773 42.9229L38.0542 42.0441C37.8454 41.9694 37.6255 41.9308 37.4038 41.9298L37.4214 41.9474ZM25.6361 42.3868C25.1187 42.0792 24.5239 41.9267 23.9223 41.9474C22.8589 41.9474 22.1646 42.4571 22.1646 43.292C22.1646 43.9775 22.6744 44.3994 23.6147 44.5312L24.0542 44.5927C24.5551 44.663 24.7924 44.7949 24.7924 45.0322C24.7924 45.3573 24.4584 45.5419 23.8345 45.5419C23.3326 45.5564 22.8404 45.4016 22.4371 45.1025L21.9977 45.8143C22.5301 46.1861 23.1678 46.3771 23.8169 46.3592C25.0297 46.3592 25.7328 45.788 25.7328 44.9882C25.7328 44.1885 25.1791 43.8633 24.2651 43.7315L23.8257 43.6699C23.4302 43.6172 23.1138 43.5381 23.1138 43.2569C23.1138 42.9757 23.4126 42.7647 23.9136 42.7647C24.3766 42.7701 24.8305 42.8942 25.2318 43.1251L25.6361 42.3868ZM50.1164 41.9474C49.8935 41.9408 49.673 41.9945 49.4781 42.1028C49.2832 42.2111 49.1212 42.3699 49.009 42.5626V42.0529H48.1038V46.2537H49.0178V43.8984C49.0178 43.2042 49.3166 42.8175 49.8966 42.8175C50.0921 42.8148 50.2862 42.8506 50.4679 42.9229L50.7491 42.0441C50.5404 41.9694 50.3205 41.9308 50.0988 41.9298L50.1164 41.9474ZM38.3398 44.1445C38.3289 44.4397 38.3798 44.734 38.4892 45.0084C38.5986 45.2828 38.764 45.5314 38.9749 45.7382C39.1859 45.945 39.4377 46.1055 39.7142 46.2094C39.9908 46.3133 40.2859 46.3583 40.5809 46.3416C41.1297 46.3696 41.669 46.1908 42.0925 45.8407L41.6531 45.1025C41.3371 45.3434 40.9518 45.4759 40.5545 45.4804C40.2167 45.453 39.9015 45.2995 39.6717 45.0504C39.4419 44.8012 39.3143 44.4747 39.3143 44.1357C39.3143 43.7968 39.4419 43.4702 39.6717 43.2211C39.9015 42.9719 40.2167 42.8184 40.5545 42.7911C40.9518 42.7955 41.3371 42.9281 41.6531 43.169L42.0925 42.4308C41.669 42.0806 41.1297 41.9019 40.5809 41.9298C40.2859 41.9131 39.9908 41.9582 39.7142 42.0621C39.4377 42.166 39.1859 42.3265 38.9749 42.5333C38.764 42.7401 38.5986 42.9887 38.4892 43.2631C38.3798 43.5375 38.3289 43.8317 38.3398 44.1269V44.1445ZM46.8998 44.1445V42.0529H45.9858V42.5626C45.8306 42.3629 45.6301 42.2029 45.4009 42.096C45.1716 41.989 44.9203 41.9381 44.6675 41.9474C44.0848 41.9474 43.5259 42.1789 43.1139 42.5909C42.7019 43.003 42.4704 43.5618 42.4704 44.1445C42.4704 44.7272 42.7019 45.2861 43.1139 45.6981C43.5259 46.1102 44.0848 46.3416 44.6675 46.3416C44.9203 46.351 45.1716 46.3 45.4009 46.1931C45.6301 46.0861 45.8306 45.9262 45.9858 45.7264V46.2362H46.8998V44.1445ZM43.4986 44.1445C43.5132 43.8972 43.5998 43.6596 43.7477 43.4609C43.8956 43.2622 44.0984 43.1111 44.3311 43.0262C44.5638 42.9413 44.8163 42.9263 45.0574 42.9831C45.2985 43.0399 45.5177 43.1659 45.6881 43.3457C45.8585 43.5255 45.9726 43.7512 46.0163 43.995C46.0601 44.2388 46.0316 44.4901 45.9343 44.7179C45.837 44.9457 45.6753 45.1401 45.4689 45.2771C45.2626 45.4142 45.0207 45.4879 44.773 45.4892C44.599 45.4914 44.4264 45.4575 44.2661 45.3898C44.1059 45.3221 43.9613 45.2219 43.8416 45.0956C43.7219 44.9693 43.6297 44.8196 43.5707 44.6559C43.5116 44.4923 43.4871 44.3181 43.4986 44.1445ZM32.4691 41.9474C31.8864 41.9556 31.3308 42.1949 30.9245 42.6127C30.5183 43.0305 30.2946 43.5926 30.3028 44.1753C30.3109 44.758 30.5502 45.3136 30.968 45.7199C31.3858 46.1261 31.9479 46.3498 32.5306 46.3416C33.1629 46.3741 33.7846 46.1705 34.2752 45.7704L33.8357 45.0937C33.4887 45.372 33.0589 45.5266 32.6141 45.5331C32.312 45.5591 32.0117 45.4662 31.777 45.2742C31.5423 45.0821 31.3917 44.8061 31.3574 44.5048H34.4773C34.4773 44.3906 34.4773 44.2763 34.4773 44.1533C34.4773 42.835 33.66 41.9562 32.4823 41.9562L32.4691 41.9474ZM32.4691 42.7647C32.6059 42.7618 32.7419 42.7859 32.8694 42.8355C32.9968 42.8852 33.1133 42.9595 33.212 43.0542C33.3108 43.1488 33.3899 43.262 33.4449 43.3873C33.4999 43.5125 33.5297 43.6474 33.5325 43.7842H31.3354C31.3513 43.5021 31.477 43.2375 31.6857 43.0469C31.8943 42.8564 32.1692 42.7551 32.4515 42.7647H32.4691ZM55.3675 44.1533V40.3655H54.4886V42.5626C54.3334 42.3629 54.1329 42.2029 53.9037 42.096C53.6745 41.989 53.4231 41.9381 53.1703 41.9474C52.5876 41.9474 52.0288 42.1789 51.6167 42.5909C51.2047 43.003 50.9732 43.5618 50.9732 44.1445C50.9732 44.7272 51.2047 45.2861 51.6167 45.6981C52.0288 46.1102 52.5876 46.3416 53.1703 46.3416C53.4231 46.351 53.6745 46.3 53.9037 46.1931C54.1329 46.0861 54.3334 45.9262 54.4886 45.7264V46.2362H55.3675V44.1533ZM56.8923 45.643C56.9494 45.6423 57.0061 45.6527 57.0592 45.6737C57.1097 45.6943 57.1559 45.7241 57.1955 45.7616C57.2341 45.7995 57.2654 45.8442 57.2877 45.8934C57.31 45.9447 57.3215 46.0001 57.3215 46.056C57.3215 46.1119 57.31 46.1673 57.2877 46.2186C57.2654 46.2678 57.2341 46.3125 57.1955 46.3504C57.1559 46.3879 57.1097 46.4177 57.0592 46.4383C57.0066 46.4615 56.9498 46.4735 56.8923 46.4735C56.809 46.4728 56.7276 46.4485 56.6575 46.4034C56.5875 46.3583 56.5318 46.2942 56.4968 46.2186C56.4748 46.1672 56.4634 46.1119 56.4634 46.056C56.4634 46.0001 56.4748 45.9448 56.4968 45.8934C56.5192 45.8442 56.5504 45.7995 56.5891 45.7616C56.6286 45.7241 56.6748 45.6943 56.7253 45.6737C56.7825 45.6509 56.8439 45.6405 56.9054 45.643H56.8923ZM56.8923 46.3856C56.9361 46.3858 56.9795 46.3769 57.0197 46.3592C57.0575 46.3423 57.0918 46.3185 57.1208 46.2889C57.1757 46.2289 57.2062 46.1505 57.2062 46.0692C57.2062 45.9878 57.1757 45.9094 57.1208 45.8495C57.0919 45.8198 57.0575 45.796 57.0197 45.7792C56.9795 45.7616 56.9361 45.7527 56.8923 45.7528C56.8484 45.753 56.8051 45.762 56.7648 45.7792C56.7253 45.7954 56.6895 45.8193 56.6594 45.8495C56.6044 45.9094 56.5739 45.9878 56.5739 46.0692C56.5739 46.1505 56.6044 46.2289 56.6594 46.2889C56.6896 46.319 56.7254 46.3429 56.7648 46.3592C56.8092 46.3783 56.8572 46.3873 56.9054 46.3856H56.8923ZM56.9186 45.8627C56.9596 45.8607 57.0001 45.8731 57.0329 45.8978C57.0463 45.9089 57.0569 45.9231 57.0638 45.9392C57.0707 45.9552 57.0736 45.9727 57.0724 45.9901C57.0731 46.0047 57.0706 46.0193 57.0653 46.0329C57.0601 46.0465 57.052 46.0589 57.0417 46.0692C57.0162 46.0923 56.9837 46.1062 56.9494 46.1087L57.0768 46.2537H56.9757L56.8571 46.1087H56.8176V46.2537H56.7341V45.8671L56.9186 45.8627ZM56.8219 45.9374V46.0428H56.9186C56.9358 46.048 56.9541 46.048 56.9714 46.0428C56.9744 46.0367 56.9761 46.0299 56.9761 46.0231C56.9761 46.0162 56.9744 46.0094 56.9714 46.0033C56.9744 45.9971 56.9761 45.9904 56.9761 45.9835C56.9761 45.9766 56.9744 45.9699 56.9714 45.9637C56.9541 45.9586 56.9358 45.9586 56.9186 45.9637L56.8219 45.9374ZM51.9883 44.1533C52.0029 43.906 52.0894 43.6684 52.2374 43.4697C52.3853 43.271 52.5881 43.1199 52.8208 43.035C53.0535 42.9501 53.3059 42.9351 53.547 42.9919C53.7881 43.0486 54.0074 43.1747 54.1778 43.3545C54.3482 43.5343 54.4623 43.76 54.506 44.0038C54.5497 44.2476 54.5212 44.4989 54.424 44.7267C54.3267 44.9545 54.1649 45.1489 53.9586 45.2859C53.7522 45.423 53.5103 45.4967 53.2626 45.4979C53.0886 45.5001 52.9161 45.4663 52.7558 45.3986C52.5955 45.3309 52.451 45.2307 52.3313 45.1044C52.2116 44.9781 52.1193 44.8284 52.0603 44.6647C52.0013 44.5011 51.9768 44.3269 51.9883 44.1533ZM21.1276 44.1533V42.0529H20.2136V42.5626C20.0584 42.3629 19.8579 42.2029 19.6287 42.096C19.3995 41.989 19.1481 41.9381 18.8953 41.9474C18.3126 41.9474 17.7538 42.1789 17.3417 42.5909C16.9297 43.003 16.6982 43.5618 16.6982 44.1445C16.6982 44.7272 16.9297 45.2861 17.3417 45.6981C17.7538 46.1102 18.3126 46.3416 18.8953 46.3416C19.1481 46.351 19.3995 46.3 19.6287 46.1931C19.8579 46.0861 20.0584 45.9262 20.2136 45.7264V46.2362H21.1276V44.1533ZM17.7265 44.1533C17.741 43.906 17.8276 43.6684 17.9755 43.4697C18.1234 43.271 18.3262 43.1199 18.5589 43.035C18.7916 42.9501 19.0441 42.9351 19.2852 42.9919C19.5263 43.0486 19.7456 43.1747 19.916 43.3545C20.0864 43.5343 20.2004 43.76 20.2442 44.0038C20.2879 44.2476 20.2594 44.4989 20.1621 44.7267C20.0649 44.9545 19.9031 45.1489 19.6968 45.2859C19.4904 45.423 19.2485 45.4967 19.0008 45.4979C18.8261 45.5014 18.6526 45.4685 18.4912 45.4013C18.3299 45.3341 18.1843 45.2341 18.0637 45.1077C17.943 44.9813 17.85 44.8311 17.7904 44.6668C17.7308 44.5026 17.7061 44.3277 17.7177 44.1533H17.7265Z" fill="#231F20"/>
<path d="M39.1746 10.0408H25.3328V34.9165H39.1746V10.0408Z" fill="#FF5F00"/>
<path d="M26.2117 22.4811C26.2091 20.0851 26.7518 17.7198 27.7986 15.5645C28.8454 13.4092 30.3689 11.5204 32.2537 10.041C29.92 8.20698 27.1174 7.06649 24.1661 6.74991C21.2149 6.43333 18.2341 6.95344 15.5645 8.25079C12.8949 9.54814 10.6441 11.5704 9.06942 14.0864C7.49473 16.6024 6.65967 19.5107 6.65967 22.4789C6.65967 25.4471 7.49473 28.3554 9.06942 30.8714C10.6441 33.3874 12.8949 35.4097 15.5645 36.707C18.2341 38.0044 21.2149 38.5245 24.1661 38.2079C27.1174 37.8913 29.92 36.7508 32.2537 34.9168C30.3695 33.4379 28.8463 31.5497 27.7996 29.3953C26.7528 27.2408 26.2098 24.8764 26.2117 22.4811Z" fill="#EB001B"/>
<path d="M57.8501 22.481C57.85 25.4494 57.0147 28.3579 55.4398 30.874C53.8648 33.3901 51.6137 35.4123 48.9437 36.7095C46.2738 38.0066 43.2927 38.5264 40.3413 38.2094C37.3899 37.8923 34.5872 36.7513 32.2537 34.9167C34.1372 33.4364 35.6599 31.5478 36.7069 29.3932C37.754 27.2386 38.2981 24.8743 38.2981 22.4788C38.2981 20.0832 37.754 17.719 36.7069 15.5644C35.6599 13.4098 34.1372 11.5211 32.2537 10.0409C34.5872 8.20628 37.3899 7.06524 40.3413 6.74821C43.2927 6.43117 46.2738 6.95095 48.9437 8.24811C51.6137 9.54528 53.8648 11.5675 55.4398 14.0836C57.0147 16.5997 57.85 19.5082 57.8501 22.4766V22.481Z" fill="#F79E1B"/>
<path d="M56.3384 32.28V31.7703H56.5449V31.6648H56.022V31.7703H56.2461V32.28H56.3384ZM57.3534 32.28V31.6648H57.1952L57.0107 32.1042L56.8261 31.6648H56.6855V32.28H56.7998V31.8186L56.9711 32.2185H57.0898L57.2611 31.8186V32.2844L57.3534 32.28Z" fill="#F79E1B"/>
</svg>
