<?xml version="1.0" encoding="utf-8"?>
<!-- Generator: Adobe Illustrator 23.1.0, SVG Export Plug-In . SVG Version: 6.00 Build 0)  -->
<svg version="1.1" id="layer" xmlns="http://www.w3.org/2000/svg" xmlns:xlink="http://www.w3.org/1999/xlink" x="0px" y="0px"
	 viewBox="0 0 127 22" style="enable-background:new 0 0 127 22;" xml:space="preserve">
<style type="text/css">
	.st0{fill:#83BA3B;}
</style>
<g id="Layer_2">
	<g id="Layer_5">
		<path class="st0" d="M124.7,1.8c-1.6-1.1-4.1-1.7-7.3-1.7H109l-3.1,17h-11l0.7-3.9h6.6l0.8-4.3h-6.6L97,5h6.8l0.9-5H90.9l-3,16.1
			h-5.1l3-16.1h-7.2l-3,16.1h-5l3-16.1h-7.2l-3.1,17H52.2l0.7-3.9h6.7l0.8-4.3h-6.7L54.3,5h6.9l0.9-5H18.9l-2.5,13.5L11.6,0.1H4
			L0,22.1h7.2L9.6,8.2l4.8,13.8h25.8l3.1-17h4l-3.1,17H112l2-10.7l3.2,10.7h7.2l-3.3-8.8l0.7-0.2c1.7-0.4,3-1.1,3.9-2.3
			s1.4-2.6,1.4-4.4C127,4.4,126.2,2.8,124.7,1.8z M33.9,17.1h-11l0.7-3.9h6.9l0.8-4.3h-6.8l0.7-3.8h11L33.9,17.1z M118.7,9.7
			c-0.7,0.5-1.8,0.7-3.2,0.7h-1.4l1.1-5.9h1.1c1.2,0,2.1,0.2,2.6,0.6c0.5,0.3,1,0.9,1,2C119.9,8.6,119.3,9.3,118.7,9.7z"/>
	</g>
</g>
</svg>
