<svg width="85" height="30" viewBox="0 0 85 30" fill="none" xmlns="http://www.w3.org/2000/svg">
<path fill-rule="evenodd" clip-rule="evenodd" d="M61.0558 6.97513C62.9827 6.97513 64.5446 5.41398 64.5446 3.48888C64.5446 1.56265 62.9827 0 61.0558 0C59.131 0 57.5699 1.56265 57.5699 3.48888C57.5699 5.41398 59.131 6.97513 61.0558 6.97513ZM34.3355 8.85788C34.1781 9.25332 33.045 12.454 30.3047 15.7712V1.58739L23.0031 3.03047V28.7401H30.3047V20.7931C32.4194 23.9649 33.4637 28.7401 33.4637 28.7401H42.2095C41.3444 25.1437 37.5602 18.5123 37.5602 18.5123C40.9565 14.2063 42.4483 9.61803 42.6855 8.85788H34.3355ZM53.5311 8.58951C46.9912 8.79941 43.6713 11.7335 43.6713 17.5662V28.7401H50.8061V19.6281C50.8061 16.1355 51.2634 14.6384 55.4079 14.4956V8.69184C54.7103 8.54378 53.5311 8.58951 53.5311 8.58951ZM10.7575 11.6889C9.86317 11.6301 7.79263 11.4963 7.79263 9.63227C7.79263 7.38294 10.7736 7.38294 11.8917 7.38294C13.8577 7.38294 16.4039 7.96392 18.2222 8.5078C18.2222 8.5078 19.2364 8.86538 20.0997 9.23158L20.1799 9.25332V3.09306L20.0697 3.06045C17.9238 2.30968 15.4286 1.58739 10.8025 1.58739C2.82619 1.58739 0 6.2341 0 10.2148C0 12.5094 0.983543 17.9099 10.1184 18.5329C10.8928 18.5805 12.948 18.6989 12.948 20.6252C12.948 22.2156 11.2654 23.1534 8.43545 23.1534C5.33415 23.1534 2.32579 22.3625 0.498518 21.6125V27.9571C3.234 28.6742 6.31769 29.0325 9.93176 29.0325C17.7308 29.0325 21.2238 24.6362 21.2238 20.2788C21.2238 15.3382 17.3151 12.1282 10.7575 11.6889ZM57.5189 28.7401H64.596V8.88037H57.5189V28.7401ZM77.9218 2.85355V28.7401H85V1.58739L77.9218 2.85355ZM67.5938 2.85355L74.6653 1.58739V28.7401H67.5938V2.85355Z" fill="url(#paint0_linear)"/>
<defs>
<linearGradient id="paint0_linear" x1="22.9874" y1="2.07063e-07" x2="29.3744" y2="35.81" gradientUnits="userSpaceOnUse">
<stop stop-color="#6B195F"/>
<stop offset="1" stop-color="#4C255B"/>
</linearGradient>
</defs>
</svg>
