<svg width="86" height="28" viewBox="0 0 86 28" fill="none" xmlns="http://www.w3.org/2000/svg">
<path d="M37.2693 27.393H30.2769L34.6742 0.432373H41.6666L37.2693 27.393Z" fill="#005CA9"/>
<path d="M24.3655 0.432373L17.6614 18.9588L16.8684 14.994L14.4895 2.88334C14.4895 2.88334 14.2012 0.432373 11.1735 0.432373H0.144174L0 0.864895C0 0.864895 3.3881 1.58577 7.35289 3.96464L13.4803 27.393H20.7611L31.9346 0.432373H24.3655Z" fill="#005CA9"/>
<path d="M79.5845 27.393H86.0003L80.3775 0.432373H74.7547C72.1595 0.432373 71.5107 2.45081 71.5107 2.45081L61.0581 27.393H68.3389L69.7807 23.3561H78.7195L79.5845 27.393ZM71.8712 17.8054L75.5476 7.71318L77.6382 17.8054H71.8712Z" fill="#005CA9"/>
<path d="M61.5624 6.92037L62.5716 1.1534C62.5716 1.1534 59.4719 0 56.2279 0C52.7677 0 44.4777 1.51383 44.4777 8.93881C44.4777 15.9313 54.2095 16.0034 54.2095 19.6798C54.2095 23.3563 45.4869 22.7075 42.6035 20.4007L41.5942 26.456C41.5942 26.456 44.694 27.9698 49.5238 27.9698C54.2816 27.9698 61.5624 25.5189 61.5624 18.7427C61.5624 11.7502 51.7585 11.1014 51.7585 8.00168C51.7585 4.82984 58.6068 5.26237 61.5624 6.92037Z" fill="#005CA9"/>
<path d="M16.8684 14.994L14.4895 2.88334C14.4895 2.88334 14.2012 0.432373 11.1735 0.432373H0.144174L0 0.864895C0 0.864895 5.33445 1.9462 10.3806 6.12726C15.2825 10.02 16.8684 14.994 16.8684 14.994Z" fill="#F7A823"/>
</svg>
