<svg width="75" height="74" viewBox="0 0 75 74" fill="none" xmlns="http://www.w3.org/2000/svg">
<path d="M22.5023 41.6758C19.8797 52.6417 19.5445 54.3668 19.207 56.2584H19.1508C18.7031 53.6777 18.5015 52.6208 16.139 41.6758H11.6625C9.52029 52.1445 9.21326 54.1725 8.84763 56.2584H8.79373C8.4281 53.9806 8.17029 52.5908 5.58044 41.6758H1.08044L6.79451 61.6188H10.7344C12.9047 51.342 13.2375 49.8967 13.8609 46.0626H13.9148C14.5875 49.8921 14.9578 51.8392 17.0414 61.6188H21.0937L26.7844 41.6758H22.5023Z" fill="black"/>
<path d="M18.6352 71.5996C18.6352 69.8259 18.2063 69.5369 17.4141 69.1969C18.3657 68.8755 18.9024 67.9805 18.9024 66.933C18.9024 66.119 18.436 64.2505 15.8766 64.2505H11.011V73.7387H12.9844V70.0271H15.0586C16.5469 70.0271 16.629 70.5266 16.629 71.8239C16.629 72.8044 16.7063 73.2924 16.8399 73.7387H19.0641V73.4912C18.6375 73.3363 18.6375 72.994 18.6352 71.5996ZM15.3375 68.4361H12.9844V65.8924H15.4875C16.6641 65.8924 16.8938 66.6324 16.8938 67.1342C16.8938 68.0754 16.3852 68.4361 15.3375 68.4361Z" fill="black"/>
<path d="M1.98999 64.2551L1.99233 65.934H4.89858V73.7433H6.90249V65.934H9.81108V64.2551H1.98999Z" fill="black"/>
<path d="M52.3477 13.0863C52.2984 12.2492 52.268 11.7705 52.268 11.7705C52.268 11.7705 52.1953 12.2446 52.057 13.0748C51.9984 13.4841 51.9117 13.9813 51.818 14.5524C51.75 15.1213 51.4711 15.7295 51.2812 16.4001C51.0844 17.0708 50.8453 17.783 50.4516 18.4768C50.0883 19.1798 49.7648 19.9336 49.2141 20.5973C48.9703 20.9373 48.7195 21.2841 48.4711 21.6356C48.2063 21.9733 47.8641 22.2669 47.5641 22.5861C46.9852 23.2474 46.275 23.7886 45.5695 24.3204C44.9039 24.8801 44.0648 25.2663 43.3617 25.7288C42.5484 26.0779 41.8359 26.5081 41.0344 26.7671C40.2703 27.0677 39.5156 27.3244 38.7727 27.5117C38.0555 27.7429 37.3359 27.8539 36.7008 28.0066C36.2953 28.0783 35.9203 28.1384 35.5617 28.1916C35.5969 28.0829 35.6414 27.9811 35.6789 27.8724C36.0188 26.8596 36.2742 25.8004 36.443 24.6881C36.5133 24.1239 36.5719 23.5527 36.6117 22.9699C36.6445 22.3803 36.6328 21.7674 36.5719 21.1292C35.9695 21.3766 35.4188 21.6564 34.9008 21.9548C34.3992 22.2623 33.9164 22.5814 33.4453 22.9121C32.5266 23.5804 31.6992 24.2996 30.9516 25.0674C29.4398 26.5959 28.207 28.291 27.1805 30.1063L27.0492 30.3306C26.4164 31.4591 26.5406 32.9044 27.4641 33.9173C28.6828 35.2516 30.0188 36.4934 31.5703 37.5549C32.3414 38.0891 33.1664 38.5816 34.0641 39.0187C34.9617 39.4511 35.8875 39.8628 36.9891 40.1264C36.9328 39.0118 36.7031 38.0336 36.45 37.0808C36.2016 36.1535 35.8781 35.2863 35.5055 34.4538C36.3281 34.1902 37.3219 33.8248 38.4445 33.3554C39.1688 33.0131 39.9633 32.694 40.7602 32.2384C41.5711 31.8268 42.3914 31.3296 43.2188 30.7793C44.0648 30.2774 44.8453 29.5721 45.6727 28.9593C46.418 28.2216 47.2383 27.5695 47.8969 26.737C48.5789 25.9346 49.2398 25.1344 49.7461 24.2326C50.0039 23.7932 50.2992 23.3839 50.5148 22.9329C50.7094 22.4774 50.9062 22.0288 51.0938 21.5848C51.525 20.7291 51.7078 19.8157 51.9234 18.9832C52.1789 18.1599 52.2633 17.3529 52.3125 16.6129C52.3617 15.8729 52.4906 15.2138 52.4414 14.6172C52.3992 14.0275 52.3781 13.5095 52.3477 13.0863Z" fill="black"/>
<path d="M47.3531 6.48887C46.1742 5.11987 44.8758 3.83875 43.357 2.73106C42.6023 2.17144 41.7937 1.65575 40.9102 1.19325C40.0219 0.737687 39.1055 0.300625 38.0156 0C38.0367 1.11694 38.2359 2.09975 38.4633 3.06175C38.6859 3.996 38.9836 4.87244 39.3305 5.71419C38.4984 5.95469 37.4906 6.29231 36.3586 6.72706C35.6227 7.0485 34.8187 7.34219 34.0102 7.77462C33.1875 8.16313 32.3508 8.63487 31.507 9.16212C30.6469 9.64081 29.8453 10.3207 29.0039 10.9081C28.2352 11.6249 27.3937 12.2493 26.7117 13.0656C26.0086 13.8472 25.3195 14.6266 24.7875 15.5146C24.5156 15.947 24.2062 16.3471 23.9789 16.7887C23.7656 17.2374 23.5594 17.6837 23.3555 18.1184C22.8984 18.9602 22.6922 19.8667 22.4508 20.6922C22.1695 21.5086 22.0664 22.311 21.9914 23.051C21.9258 23.7887 21.7687 24.4431 21.8062 25.0421C21.825 25.6341 21.8414 26.1497 21.8531 26.5752C21.8812 27.4124 21.8906 27.8934 21.8906 27.8934C21.8906 27.8934 21.9797 27.4193 22.1367 26.5938C22.2141 26.1868 22.3102 25.6942 22.418 25.1253C22.507 24.5588 22.8023 23.9575 23.0109 23.2938C23.2312 22.6278 23.4844 21.9225 23.9086 21.2426C24.293 20.5489 24.6398 19.8043 25.2094 19.1568C25.4648 18.8261 25.725 18.4861 25.9875 18.1439C26.2617 17.8109 26.6109 17.5287 26.9156 17.2189C27.5086 16.5783 28.2352 16.058 28.9547 15.5469C29.6414 15.0081 30.4805 14.6451 31.2047 14.2034C32.0273 13.8773 32.7539 13.468 33.5648 13.2344C34.3406 12.9569 35.1023 12.7234 35.8477 12.5569C36.5719 12.3464 37.2984 12.2563 37.9359 12.1221C38.3438 12.0643 38.7234 12.0157 39.0797 11.9718C39.0375 12.0782 38.9977 12.1799 38.9531 12.2863C38.5828 13.2876 38.2969 14.3398 38.093 15.4475C38.0039 16.0094 37.9266 16.5806 37.868 17.1611C37.8211 17.7507 37.8117 18.3613 37.8539 19.0041C38.4633 18.7752 39.0187 18.5116 39.5484 18.2271C40.0594 17.9334 40.5586 17.6282 41.0344 17.316C41.9766 16.6754 42.825 15.9794 43.5984 15.2324C45.15 13.7478 46.4367 12.0921 47.5219 10.3068L47.6578 10.0848C48.3234 8.97713 48.2461 7.52719 47.3531 6.48887Z" fill="black"/>
<path d="M61.6594 58.0855V52.9194H71.5078V49.3952H61.6594V45.2072H72.382V41.6807H57.5156V61.6237H72.8578V58.0855H61.6594Z" fill="black"/>
<path d="M55.5773 65.9317V64.2505H48.7335L48.7359 73.7479H50.7445V69.7542H54.9749V68.073H50.7445V65.9317H55.5773Z" fill="black"/>
<path d="M53.1984 57.1188C53.1984 53.3956 52.3008 52.7805 50.6391 52.059C52.6406 51.3953 53.7656 49.5014 53.7656 47.3115C53.7656 45.5863 52.7766 41.6736 47.3977 41.6736H37.1836V61.6166H41.3273V53.805H45.6891C48.8109 53.805 48.9797 54.8618 48.9797 57.5882C48.9773 59.6394 49.1484 60.6708 49.432 61.6212H54.1008V61.0916C53.1984 60.7586 53.1984 60.0348 53.1984 57.1188ZM46.275 50.4518H41.3273V45.1169H46.5867C49.0688 45.1169 49.5445 46.6709 49.5445 47.7277C49.5422 49.698 48.4711 50.4495 46.275 50.4518Z" fill="black"/>
<path d="M58.8984 72.0599V69.6087H63.5859V67.9275H58.8984V65.9318H64.0031V64.2529H56.9297V73.7411H64.2305V72.0599H58.8984Z" fill="black"/>
<path d="M73.4905 71.5996C73.4905 69.8259 73.0569 69.5369 72.2694 69.1969C73.2233 68.8755 73.7624 67.9805 73.7624 66.933C73.7624 66.119 73.2913 64.2505 70.7319 64.2505H65.871V73.7387H67.8444V70.0271H69.9186C71.4022 70.0271 71.4889 70.5266 71.4889 71.8239C71.4889 72.8044 71.5663 73.2924 71.6999 73.7387H73.9194V73.4912C73.4928 73.3363 73.4929 72.994 73.4905 71.5996ZM70.1975 68.4361H67.8444V65.8924H70.3428C71.5241 65.8924 71.7538 66.6324 71.7538 67.1342C71.7538 68.0754 71.2452 68.4361 70.1975 68.4361Z" fill="black"/>
<path d="M44.6767 68.3413L42.3377 67.7724C41.9345 67.6822 41.3135 67.5227 41.3135 66.7827C41.3135 65.9201 42.2322 65.6449 42.9892 65.6449C44.747 65.6449 44.9017 66.6555 44.965 67.0717H46.8845C46.8705 65.9109 46.083 64.0054 43.1322 64.0054C40.0127 64.0054 39.4408 65.8739 39.4408 66.9307C39.4408 69.0189 40.9385 69.3611 42.4947 69.7172L43.5213 69.9577C44.5455 70.1982 45.265 70.3925 45.265 71.1325C45.265 72.1407 44.2033 72.3604 43.2588 72.3604C41.501 72.3604 41.2314 71.3545 41.2174 70.8296H39.3002C39.3002 72.0043 39.9002 74 43.4111 74C44.2502 74 47.201 73.7479 47.201 70.8943C47.1986 69.19 45.9963 68.6581 44.6767 68.3413Z" fill="black"/>
<path d="M33.2393 41.6714H29.0182V61.6144H33.2393V41.6714Z" fill="black"/>
<path d="M25.4273 64.2551H23.1047L19.6758 73.7456H21.7945L22.4625 71.7893H26.0109L26.6297 73.7456H28.8141L25.4273 64.2551ZM23.0016 70.152L24.2367 66.3988H24.2531L25.4531 70.152H23.0016Z" fill="black"/>
<path d="M35.9764 64.2551V70.8666H35.953L32.1303 64.2551H30.0162V73.7456H31.8889V66.9793H31.917L35.8405 73.7456H37.8537V64.2551H35.9764Z" fill="black"/>
</svg>
