<svg width="16" height="15" fill="none" xmlns="http://www.w3.org/2000/svg"><path fill-rule="evenodd" clip-rule="evenodd" d="M.334 7.5a7.5 7.5 0 1115 0 7.5 7.5 0 01-15 0zm8.721-3.074c.287-.37.504-.892.425-1.426-.468.033-1.015.332-1.334.723-.29.353-.53.88-.437 1.39.512.016 1.04-.29 1.346-.687zm2.275 1.52c-1.474.812-1.235 2.93.254 3.496-.205.456-.303.66-.567 1.064-.368.565-.887 1.267-1.53 1.272-.265.003-.439-.077-.626-.163-.217-.1-.452-.209-.868-.206-.414.002-.653.11-.873.208-.192.086-.37.166-.637.163-.643-.006-1.134-.64-1.502-1.204C3.95 9 3.843 7.148 4.478 6.164c.451-.7 1.164-1.108 1.833-1.108.357 0 .644.103.918.201.249.09.487.175.756.175.248 0 .453-.078.676-.163.267-.102.562-.214.991-.214.597 0 1.229.327 1.678.89z" fill="#828CA0"/></svg>