<svg width="481" height="101" fill="none" xmlns="http://www.w3.org/2000/svg"><path opacity=".7" fill-rule="evenodd" clip-rule="evenodd" d="M325.931 75.106h-2.958v-10.62h2.958v10.62zm4.856 0h-2.912v-10.62h2.746l4.369 5.614v-5.613h2.912v10.619h-2.579l-4.536-5.825v5.825zm17.464-3.277c0 2.17-1.714 3.459-4.293 3.459-1.881 0-3.672-.592-4.976-1.76l1.638-1.957c1.047.835 2.215 1.275 3.444 1.275.789 0 1.213-.273 1.213-.759 0-.44-.348-.683-1.79-1.016-2.26-.516-4.005-1.153-4.005-3.368 0-1.972 1.563-3.398 4.112-3.398 1.805 0 3.216.485 4.369 1.41l-1.472 2.079c-.971-.683-2.033-1.047-2.973-1.047-.713 0-1.062.304-1.062.713 0 .486.364.698 1.835 1.032 2.443.53 3.96 1.32 3.96 3.337zm6.672 3.277h-2.943v-8.04h-3.186v-2.58h9.315v2.58h-3.186v8.04zm5.36 0h-3.095l4.521-10.695h2.837l4.52 10.695h-3.155l-.774-1.896h-4.096l-.758 1.896zm2.821-7.206l-1.198 3.019h2.382l-1.184-3.019zm9.905 7.206h-2.912v-10.62h2.746l4.369 5.614v-5.613h2.912v10.619h-2.579l-4.536-5.825v5.825zm14.536 0h-2.943v-8.04h-3.186v-2.58h9.315v2.58h-3.186v8.04zM328.449 88.63h-2.943v-8.04h-3.186v-2.58h9.315v2.58h-3.186v8.04zm7.421 0h-2.943V78.01h5.021c1.623 0 2.746.425 3.459 1.138.622.622.94 1.442.94 2.519 0 1.623-.864 2.7-2.184 3.261l2.533 3.702h-3.398l-2.139-3.216h-1.289v3.216zm0-8.07v2.548h1.941c1.002 0 1.578-.486 1.578-1.29 0-.834-.607-1.259-1.593-1.259h-1.926zm10.028 8.07h-3.095l4.521-10.695h2.836l4.521 10.695h-3.155l-.774-1.896h-4.096l-.758 1.896zm2.821-7.206l-1.198 3.019h2.382l-1.184-3.019zm9.905 7.206h-2.912V78.01h2.745l4.369 5.614V78.01h2.913v10.62h-2.579l-4.536-5.825v5.825zm17.464-3.277c0 2.17-1.715 3.459-4.294 3.459-1.881 0-3.671-.592-4.975-1.76l1.638-1.957c1.047.835 2.215 1.275 3.444 1.275.789 0 1.213-.274 1.213-.759 0-.44-.349-.683-1.79-1.016-2.26-.516-4.005-1.153-4.005-3.368 0-1.972 1.563-3.398 4.111-3.398 1.806 0 3.217.485 4.369 1.41l-1.471 2.079c-.971-.683-2.033-1.047-2.973-1.047-.713 0-1.062.303-1.062.713 0 .486.364.698 1.835 1.032 2.443.53 3.96 1.32 3.96 3.337zm4.374 3.277h-2.943V78.01h8.495v2.58h-5.552v1.805h5.021v2.442h-5.021v3.793zm15.511 0h-8.617V78.01h8.541v2.504h-5.628v1.608h5.097v2.32h-5.097v1.685h5.704v2.503zm4.444 0h-2.943V78.01h5.022c1.623 0 2.745.425 3.458 1.138.622.622.941 1.442.941 2.519 0 1.623-.865 2.7-2.184 3.261l2.533 3.702h-3.398l-2.139-3.216h-1.29v3.216zm0-8.07v2.548h1.942c1.001 0 1.578-.486 1.578-1.29 0-.834-.607-1.259-1.593-1.259h-1.927zm16.426 4.793c0 2.17-1.714 3.459-4.293 3.459-1.881 0-3.671-.592-4.976-1.76l1.638-1.957c1.047.835 2.215 1.275 3.444 1.275.789 0 1.214-.274 1.214-.759 0-.44-.349-.683-1.791-1.016-2.26-.516-4.004-1.153-4.004-3.368 0-1.972 1.562-3.398 4.111-3.398 1.805 0 3.216.485 4.369 1.41l-1.472 2.079c-.971-.683-2.033-1.047-2.973-1.047-.713 0-1.062.303-1.062.713 0 .486.364.698 1.836 1.032 2.442.53 3.959 1.32 3.959 3.337zM218.498 18.025h-.001c-.705-.047-2.335-.155-2.335-1.647 0-1.802 2.349-1.802 3.23-1.802 1.549 0 3.556.465 4.989.9 0 0 .799.287 1.479.58l.064.018V11.14l-.087-.025c-1.691-.602-3.658-1.18-7.303-1.18-6.286 0-8.513 3.722-8.513 6.91 0 1.838.774 6.164 7.974 6.663h.006c.615.04 2.223.139 2.223 1.676 0 1.274-1.326 2.025-3.556 2.025-2.443 0-4.815-.633-6.255-1.234v5.082c2.156.574 4.586.861 7.434.861 6.147 0 8.899-3.521 8.899-7.011 0-3.957-3.08-6.53-8.248-6.88zm18.581-2.268l-.031.082c-.206.545-1.116 2.96-3.146 5.456V9.934l-5.754 1.156v20.594h5.754v-6.366c1.667 2.54 2.49 6.366 2.49 6.366h6.892c-.681-2.881-3.664-8.193-3.664-8.193 2.677-3.45 3.852-7.124 4.039-7.734h-6.58zm21.057-1.509c1.519 0 2.75-1.25 2.75-2.793 0-1.543-1.231-2.795-2.75-2.795-1.516 0-2.747 1.252-2.747 2.795s1.231 2.793 2.747 2.793zm-13.699 8.485c0-4.672 2.617-7.022 7.771-7.19 0 0 .929-.037 1.479.082v4.649c-3.266.114-3.626 1.313-3.626 4.11v7.3h-5.624v-8.95zm16.49 8.95h-5.577V15.776h5.577v15.909zm10.5-20.735v20.736h5.578V9.934l-5.578 1.014zm-2.565-1.014l-5.572 1.014v20.736h5.572V9.934zm17.7 61.701c-1.181-.817-2.968-1.229-5.311-1.229h-6.136l-2.281 12.506h-8.038l.517-2.837h4.842l.573-3.187-4.839.007.518-2.825h4.988l.663-3.663H261.93l-2.166 11.863h-3.717l2.181-11.864h-5.295l-2.165 11.863h-3.621l2.182-11.863h-5.292l-2.284 12.507h-8.095l.511-2.838h4.862l.574-3.169-4.857-.005.516-2.83h5.043l.659-3.665h-31.562l-1.796 9.91-3.578-9.91h-5.493l-2.956 16.174h5.246l1.789-10.184 3.472 10.184h18.801l2.286-12.51h2.941l-2.286 12.51h49.47l1.434-7.897 2.32 7.897h5.249l-2.404-6.453.55-.12c1.211-.262 2.156-.825 2.814-1.67.657-.852.992-1.946.992-3.26 0-1.53-.554-2.657-1.694-3.443l.001.001zm-66.24 11.277h-8.03l.519-2.837h5.036l.571-3.196h-4.988l.48-2.808h8.019l-1.608 8.841h.001zm59.575-4.893c1.046 0 1.812-.181 2.34-.554h-.002c.397-.281.869-.828.87-1.847 0-.842-.405-1.287-.747-1.512-.437-.287-1.071-.428-1.94-.428h-.763l-.796 4.341h1.038zM19 19.213h8.54V16.18h-4.99V8.594H19v10.62zm14.248.228c3.277 0 5.81-2.458 5.81-5.537v-.03c0-3.08-2.503-5.507-5.78-5.507-3.276 0-5.81 2.457-5.81 5.537v.03c0 3.08 2.503 5.507 5.78 5.507zm.03-3.14c-1.365 0-2.23-1.138-2.23-2.397v-.03c0-1.245.85-2.367 2.2-2.367 1.366 0 2.23 1.138 2.23 2.397v.03c0 1.244-.85 2.367-2.2 2.367zm12.008 3.14c2.64 0 4.127-1.29 5.021-2.867L47.38 14.92c-.44.79-1.002 1.335-2.003 1.335-1.168 0-1.987-.97-1.987-2.351v-.03c0-1.275.789-2.322 1.987-2.322.971 0 1.532.531 1.927 1.29l2.928-1.714c-.895-1.624-2.473-2.761-4.81-2.761-3.17 0-5.643 2.366-5.643 5.537v.03c0 3.292 2.564 5.507 5.507 5.507zm4.747-.228h3.793l.546-1.426h3.717l.561 1.426h3.854L58.028 8.518h-3.52l-4.475 10.695zm5.234-3.944l.971-2.579.971 2.58h-1.942zm7.673 3.944h8.541V16.18h-4.99V8.594h-3.55v10.62zM19 31.745h5.886c2.685 0 4.08-1.244 4.08-2.943v-.03c0-1.456-.879-2.184-2.244-2.579 1.137-.394 1.896-1.168 1.896-2.427v-.03c0-.729-.273-1.275-.652-1.654-.622-.622-1.548-.956-3.02-.956H19v10.62zm6.129-7.175c0 .47-.364.728-1.123.728H22.46v-1.487h1.532c.759 0 1.138.258 1.138.729v.03zm.273 3.686v.03c0 .456-.395.774-1.168.774h-1.775v-1.577h1.79c.774 0 1.153.318 1.153.773zm3.565 3.49h3.793l.546-1.427h3.716l.562 1.426h3.853L36.962 21.05h-3.52l-4.475 10.695zm5.234-3.945l.97-2.579.971 2.58h-1.941zm7.673 3.944h3.52v-4.9l3.944 4.9h3.155V21.126h-3.52v4.688l-3.777-4.688h-3.322v10.62zm11.837 0h3.55v-2.26l.91-1.107 2.078 3.367h4.233l-3.778-6.007 3.702-4.612H60.28l-3.02 3.975v-3.975h-3.55v10.62zm15.5.198c2.851 0 4.687-1.366 4.687-3.596v-.03c0-2.14-1.82-2.928-4.536-3.429-1.122-.212-1.41-.394-1.41-.682v-.03c0-.258.242-.44.773-.44.986 0 2.184.318 3.186 1.046l1.73-2.397c-1.23-.97-2.747-1.456-4.795-1.456-2.928 0-4.505 1.563-4.505 3.58v.03c0 2.246 2.093 2.928 4.475 3.414 1.138.227 1.471.394 1.471.698v.03c0 .288-.273.455-.91.455a6.086 6.086 0 0 1-3.716-1.244l-1.897 2.26c1.35 1.184 3.292 1.79 5.446 1.79zm39.534-19.055c-.349 0-.634.213-.635.64l-.057 14.802c-.001.383.248.573.587.573h2.785c.32 0 .586-.158.586-.478V24.18h2.651c1.766-.116 2.948-.946 3.439-2.615.147-.501.178-.934.178-1.45v-3.469c-.13-2.563-1.455-3.539-3.352-3.757h-6.182zm4.939 3.935h-1.645v3.369h1.645c.37 0 .674-.308.674-.683v-2.004a.68.68 0 0 0-.674-.681zm7.642-3.915h4.32c2.53.148 3.899 1.489 3.863 4.27v10.299c0 .798-.799 1.403-1.481 1.403h-5.664c-1.719 0-2.853-1.353-3.136-2.68-.192-.899-.147-1.933-.105-2.92.018-.41.035-.813.035-1.194 0-2.008 1.318-3.998 3.513-3.998h2.305c.67-.037.641-1.517 0-1.465h-3.603c-.366 0-.622-.196-.656-.571v-2.697c0-.345.281-.447.609-.447zm2.383 8.903h1.317c.311 0 .567.258.567.573v2.319a.572.572 0 0 1-.567.573h-1.317a.57.57 0 0 1-.565-.573v-2.32a.57.57 0 0 1 .565-.572zm7.125-1.673v-6.506c0-.421.085-.757.42-.757h2.948c.414 0 .564.278.564.656v5.71c0 .322.183.505.517.505h1.451c.225 0 .365-.15.365-.404V13.43c0-.228.165-.538.448-.538h3.065c.212 0 .433.137.433.49v10.79c0 3.312-1.736 4.79-4.786 4.79h-3.656c-.302 0-.533-.218-.533-.506v-2.864c0-.381.155-.606.583-.606h3.946c.709 0 .755-1.28 0-1.28h-1.824c-1.972 0-3.784-1.528-3.941-3.567zm11.752-3.833v-2.813c0-.302.245-.549.544-.549h.67c1.336-.28 1.884-.957 2.553-1.78.196-.242.402-.496.641-.756.648-.71 1.218-.896 1.638-.144v2.68h1.583c.299 0 .543.247.543.55v2.812c0 .302-.245.55-.543.55h-1.584V28.38a.548.548 0 0 1-.543.549h-2.786a.547.547 0 0 1-.542-.55V16.856h-1.63a.55.55 0 0 1-.544-.55zm19.05 12.574a.683.683 0 0 0 .679-.681c0-1.767-.006-3.525-.013-5.279-.006-1.746-.013-3.488-.013-5.23-.003-1.125 2.192-1.468 2.341 0v10.509c0 .374.306.681.68.681h2.609a.683.683 0 0 0 .679-.681c0-1.878.009-3.74.017-5.597.008-1.85.016-3.695.016-5.55.21-3.362-4.325-6.094-6.971-3.028-1.407-1.53-4.05-1.764-5.574-.29v-.202a.684.684 0 0 0-.681-.684h-2.608a.684.684 0 0 0-.681.684v14.667c0 .374.307.681.681.681h2.608a.683.683 0 0 0 .681-.681v-10.58c0-1.32 2.281-1.143 2.26 0v10.58c0 .374.305.681.681.681h2.609z" fill="#fff"/><path opacity=".7" d="M85.404 83.526v-5.951c0-2.246-1.408-3.757-3.675-3.777a3.565 3.565 0 0 0-1.867.389 3.638 3.638 0 0 0-1.414 1.3 3.454 3.454 0 0 0-1.315-1.275 3.383 3.383 0 0 0-1.77-.414 3.047 3.047 0 0 0-1.55.337 3.108 3.108 0 0 0-1.182 1.075v-1.19H70.6v9.506h2.052V78.26c0-1.65.897-2.523 2.286-2.523s2.032.892 2.032 2.503v5.285h2.04V78.26c0-1.65.937-2.523 2.287-2.523 1.35 0 2.052.892 2.052 2.503v5.285h2.056zm30.364-9.498h-3.32v-2.88h-2.052v2.88H108.5v1.888h1.896v4.329c0 2.206.838 3.519 3.242 3.519a4.714 4.714 0 0 0 2.539-.734l-.585-1.77a3.706 3.706 0 0 1-1.798.536c-1.015 0-1.35-.635-1.35-1.587v-4.293h3.32l.004-1.888zm17.333-.238a2.715 2.715 0 0 0-1.419.352 2.78 2.78 0 0 0-1.043 1.04v-1.154h-2.013v9.498h2.033v-5.324c0-1.587.663-2.444 1.993-2.444a3.26 3.26 0 0 1 1.272.238l.624-1.948a4.273 4.273 0 0 0-1.447-.258zm-26.205.992a6.893 6.893 0 0 0-3.811-.992c-2.365 0-3.902 1.154-3.902 3.039 0 1.551 1.132 2.503 3.223 2.8l.956.14c1.111.158 1.642.456 1.642.992 0 .734-.741 1.154-2.13 1.154a4.92 4.92 0 0 1-3.121-.992l-.925 1.607a6.658 6.658 0 0 0 4.046 1.234c2.696 0 4.26-1.293 4.26-3.099 0-1.67-1.233-2.543-3.261-2.84l-.956-.14c-.878-.118-1.584-.297-1.584-.931 0-.695.663-1.111 1.779-1.111a5.943 5.943 0 0 1 2.91.813l.874-1.674zm54.431-.992a2.715 2.715 0 0 0-1.419.352 2.772 2.772 0 0 0-1.043 1.04v-1.154h-2.013v9.498h2.033v-5.324c0-1.587.663-2.444 1.993-2.444.435-.007.868.074 1.272.238l.624-1.948a4.273 4.273 0 0 0-1.447-.258zm-26.174 4.987c0 2.88 1.974 4.987 4.982 4.987a4.839 4.839 0 0 0 3.359-1.135l-.975-1.67a4.06 4.06 0 0 1-2.442.853c-1.623 0-2.813-1.214-2.813-3.04 0-1.824 1.194-3.018 2.813-3.038.883.01 1.739.309 2.442.853l.975-1.67a4.838 4.838 0 0 0-3.359-1.135c-3.008 0-4.982 2.107-4.982 4.987v.008zm19.031 0v-4.761h-2.033v1.154a3.557 3.557 0 0 0-1.308-1.06 3.49 3.49 0 0 0-1.641-.332c-2.618 0-4.682 2.087-4.682 4.987s2.052 4.987 4.682 4.987a3.49 3.49 0 0 0 1.641-.332 3.557 3.557 0 0 0 1.308-1.06v1.15h2.033v-4.733zm-7.561 0c0-1.67 1.073-3.04 2.832-3.04 1.682 0 2.813 1.314 2.813 3.04s-1.131 3.039-2.813 3.039c-1.759 0-2.832-1.373-2.832-3.04zm-24.524-4.987c-2.73 0-4.65 2.027-4.65 4.987 0 3.02 1.994 4.987 4.787 4.987a5.616 5.616 0 0 0 3.831-1.333l-.995-1.532a4.405 4.405 0 0 1-2.731.992c-1.311 0-2.5-.615-2.793-2.325h6.936c.02-.258.039-.515.039-.793 0-2.96-1.818-4.987-4.435-4.987l.011.004zm-.039 1.849c1.311 0 2.15.833 2.365 2.305h-4.842c.215-1.373 1.034-2.305 2.481-2.305h-.004zm50.971 3.138V70.21h-2.033v4.967a3.549 3.549 0 0 0-1.308-1.06 3.492 3.492 0 0 0-1.641-.332c-2.618 0-4.682 2.087-4.682 4.987s2.052 4.987 4.682 4.987a3.493 3.493 0 0 0 1.641-.332 3.55 3.55 0 0 0 1.308-1.06v1.15h2.033v-4.741zm2.376 3.872a.588.588 0 0 1 .425.179.606.606 0 0 1-.191.98.58.58 0 0 1-.234.047.599.599 0 0 1-.562-.369.606.606 0 0 1 .32-.79.6.6 0 0 1 .249-.047h-.007zm0 1.071a.435.435 0 0 0 .323-.135.476.476 0 0 0-.144-.765.442.442 0 0 0-.179-.036.459.459 0 0 0-.184.036.463.463 0 0 0-.273.343.472.472 0 0 0 .273.522.457.457 0 0 0 .191.035h-.007zm.035-.754a.244.244 0 0 1 .163.048.15.15 0 0 1 .045.058c.01.023.015.048.014.073a.15.15 0 0 1-.047.115.218.218 0 0 1-.129.056l.18.21h-.141l-.167-.21h-.055v.21h-.117v-.556l.254-.004zm-.137.104v.15h.137c.024.008.05.008.074 0a.064.064 0 0 0 .021-.024.067.067 0 0 0 .006-.031.068.068 0 0 0-.006-.032.064.064 0 0 0-.021-.024.13.13 0 0 0-.074 0l-.137-.04zm-9.827-4.293c0-1.67 1.073-3.04 2.832-3.04 1.682 0 2.813 1.314 2.813 3.04s-1.131 3.039-2.813 3.039c-1.759 0-2.832-1.373-2.832-3.04zm-68.624 0v-4.761h-2.032v1.154a3.553 3.553 0 0 0-1.305-1.051 3.492 3.492 0 0 0-1.633-.33c-2.618 0-4.681 2.088-4.681 4.988 0 2.9 2.052 4.987 4.681 4.987a3.49 3.49 0 0 0 1.641-.332 3.554 3.554 0 0 0 1.308-1.06v1.15h2.033l-.012-4.745zm-7.56 0c0-1.67 1.072-3.04 2.832-3.04 1.681 0 2.813 1.314 2.813 3.04s-1.132 3.039-2.813 3.039c-1.76 0-2.832-1.369-2.832-3.04zm-56.14-.057a14.46 14.46 0 0 1 1.41-6.243 14.216 14.216 0 0 1 3.954-4.985 13.917 13.917 0 0 0-7.18-2.971 13.84 13.84 0 0 0-7.637 1.355 14.13 14.13 0 0 0-5.766 5.269 14.463 14.463 0 0 0-2.14 7.577c0 2.68.742 5.306 2.14 7.577a14.128 14.128 0 0 0 5.766 5.27 13.839 13.839 0 0 0 7.637 1.354 13.918 13.918 0 0 0 7.18-2.971 14.216 14.216 0 0 1-3.955-4.987 14.46 14.46 0 0 1-1.409-6.245zm28.089.001c0 2.68-.741 5.306-2.14 7.578a14.129 14.129 0 0 1-5.767 5.269 13.84 13.84 0 0 1-7.637 1.354 13.917 13.917 0 0 1-7.18-2.973 14.24 14.24 0 0 0 3.953-4.987 14.483 14.483 0 0 0 1.413-6.243 14.48 14.48 0 0 0-1.413-6.243 14.241 14.241 0 0 0-3.954-4.987 13.918 13.918 0 0 1 7.182-2.973 13.84 13.84 0 0 1 7.638 1.356 14.13 14.13 0 0 1 5.767 5.27 14.462 14.462 0 0 1 2.138 7.58zm-1.35 8.844v-.46h.184v-.092h-.457v.095h.184v.46l.09-.003zm.902 0v-.556h-.121l-.164.397-.164-.397h-.144v.556h.082v-.417l.152.361h.105l.152-.361v.42l.102-.003z" fill="#fff"/></svg>