<svg width="16" height="15" fill="none" xmlns="http://www.w3.org/2000/svg"><path fill-rule="evenodd" clip-rule="evenodd" d="M7.832 15a7.5 7.5 0 110-15 7.5 7.5 0 010 15zM4.922 3.01c-.187.042-.34.206-.34.534v8.094c0 .31.12.527.342.549a.606.606 0 00.366-.093l5.556-3.08L9.64 7.766 4.932 12.18l4.503-4.597L4.93 3.018l4.71 4.348 1.207-1.221-5.556-3.07a.53.53 0 00-.368-.064zm0 0v.001l.007.007-.007-.007zm.01 9.17l-.008.007.008-.007zm4.914-4.603l1.361 1.238 1.608-.892c.222-.123.456-.438 0-.69l-1.6-.884-1.369 1.228z" fill="#828CA0"/></svg>