<svg width="20" height="20" fill="none" xmlns="http://www.w3.org/2000/svg"><path d="M9.945 5.89a4.524 4.524 0 00-4.515 4.516 4.501 4.501 0 004.515 4.515 4.524 4.524 0 004.515-4.515c0-2.47-2.046-4.515-4.515-4.515zm0 7.408a2.905 2.905 0 01-2.893-2.892 2.905 2.905 0 012.893-2.893 2.905 2.905 0 012.892 2.893 2.905 2.905 0 01-2.892 2.892zm4.695-6.49a1.023 1.023 0 100-2.046 1.023 1.023 0 000 2.046z" fill="#828CA0"/><path d="M17.28 3.138c-.917-.953-2.222-1.447-3.704-1.447H6.31c-3.069 0-5.115 2.046-5.115 5.115v7.231c0 1.517.494 2.822 1.482 3.774.952.917 2.222 1.376 3.668 1.376h7.196c1.517 0 2.787-.494 3.704-1.376.952-.917 1.446-2.222 1.446-3.739V6.806c0-1.481-.494-2.751-1.411-3.668zm-.212 10.934c0 1.094-.317 1.976-.952 2.575-.635.6-1.517.917-2.575.917H6.345c-1.058 0-1.94-.317-2.575-.917-.635-.635-.952-1.516-.952-2.61V6.806c0-1.058.317-1.94.952-2.575.6-.6 1.517-.917 2.575-.917h7.266c1.059 0 1.94.317 2.575.952.6.635.953 1.517.953 2.54v7.266h-.07z" fill="#828CA0"/></svg>