<svg width="116" height="28" fill="none" xmlns="http://www.w3.org/2000/svg"><path fill-rule="evenodd" clip-rule="evenodd" d="M16.636 14.037a7.824 7.824 0 1 1-15.647 0 7.824 7.824 0 0 1 15.647 0zm-2.887 0a4.937 4.937 0 1 1-9.873 0 4.937 4.937 0 0 1 9.873 0z" fill="#fff"/><path d="M27.135 9.097a7.544 7.544 0 1 0 0 9.88l-2.19-1.882a4.657 4.657 0 1 1 0-6.117l2.19-1.881zm1.796 6.523V3.23h2.887v3.54h4.331v2.701h-4.33v6.334a2.934 2.934 0 0 0 2.933 2.934h1.397v2.7h-1.397a5.821 5.821 0 0 1-5.82-5.82z" fill="#fff"/><path fill-rule="evenodd" clip-rule="evenodd" d="M49.84 19.566c-1.172 1.248-2.806 2.013-4.775 2.015a7.544 7.544 0 0 1 0-15.089c1.969.003 3.603.767 4.775 2.016V6.772h2.795v14.53H49.84v-1.736zm-4.765-.872a4.657 4.657 0 1 0 0-9.314 4.657 4.657 0 0 0 0 9.314z" fill="#fff"/><circle cx="72.881" cy="13.999" r="13.785" fill="#fff"/><path d="M59.096 14C59.096 2.647 61.53.214 72.881.214c11.351 0 13.784 2.433 13.784 13.784 0 11.352-2.433 13.785-13.784 13.785-11.352 0-13.785-2.433-13.785-13.784z" fill="#fff"/><path d="M68.638 3.23c3.682.046 8.787 6.032 11.069 10.166 1.671-1.672 2.598-3.23 2.71-4.36.994.181 1.898.791 1.92 1.875.046 1.4-1.22 3.366-3.343 5.309.95 2.53 1.062 4.63.159 5.602-.407.406-.95.542-1.537.542.068-1.333-.248-2.824-.835-4.36-4.067 2.937-9.059 4.834-12.04 4.699-.994-.045-1.762-.316-2.214-.859-.633-.722-.362-1.536-.317-1.649 4.18.633 9.917-2.304 13.306-4.879-2.847-5.173-7.884-9.94-10.934-9.94.09-1.287.769-2.168 2.056-2.145z" fill="url(#paint0_radial_190_6337)"/><path d="M77.696 24.985c-3.818 0-8.72-5.558-10.956-9.172-1.558 1.491-3.998 4.495-2.665 6.167-.204-.226-2.079-2.598-2.124-2.688-.88-1.514.452-4.02 3.14-6.528-.949-2.124-1.333-3.637-1.333-4.79 0-2.303 1.452-3.344 2.87-4.495-1.22 1.762.09 5.286.993 7.229 3.547-2.553 8.607-4.721 11.95-4.721 1.265 0 2.236.248 3.004 1.22L84.27 9.33c-2.868-2.462-11.226 1.581-14.976 4.337 2.281 3.592 8.697 11.001 12.085 8.516-.813.927-2.462 2.802-3.682 2.802z" fill="url(#paint1_radial_190_6337)"/><path d="M64.143 22.048l-.068-.067.068.067zm40.588-15.254h-3.51l10.62 14.529h3.511l-10.621-14.53z" fill="#fff"/><path d="M111.841 6.794h3.51l-10.62 14.529h-3.511l10.621-14.53zm-18.714.032v14.498h2.9V9.574h4.198V6.826h-4.198c0-2.598 1.36-3.54 2.99-3.54h1.208V.569h-1.208c-3.564 0-5.89 2.33-5.89 6.258z" fill="#fff"/><defs><radialGradient id="paint0_radial_190_6337" cx="0" cy="0" r="1" gradientUnits="userSpaceOnUse" gradientTransform="matrix(-10.9415 9.67478 -10.08375 -11.40402 78.89 16.223)"><stop stop-color="#E0F1FD"/><stop stop-color="#fff"/><stop offset="0" stop-color="#F3FAFF"/><stop offset=".248" stop-color="#E7EEFF"/><stop offset=".474" stop-color="#C4D4FF"/><stop offset=".859" stop-color="#B8CBFC"/><stop offset="1" stop-color="#99AFFF"/></radialGradient><radialGradient id="paint1_radial_190_6337" cx="0" cy="0" r="1" gradientUnits="userSpaceOnUse" gradientTransform="rotate(68.403 25.821 54.827) scale(15.4319 16.2021)"><stop stop-color="#9DE2FF"/><stop offset=".281" stop-color="#7AB7FB"/><stop offset=".892" stop-color="#0C34F0"/></radialGradient></defs></svg>