<svg width="113" height="35" fill="none" xmlns="http://www.w3.org/2000/svg"><path fill-rule="evenodd" clip-rule="evenodd" d="M57.203 21.136a4.813 4.813 0 01-4.809-4.808 4.813 4.813 0 014.81-4.809 4.813 4.813 0 014.808 4.809 4.813 4.813 0 01-4.809 4.808zm0-13.09a8.233 8.233 0 00-4.809 1.543V2.703h-3.472v13.625c0 4.567 3.715 8.282 8.281 8.282 4.567 0 8.282-3.715 8.282-8.283 0-4.565-3.715-8.281-8.282-8.281zm26.181 3.473a4.815 4.815 0 00-4.809 4.81 4.814 4.814 0 004.809 4.808 4.814 4.814 0 004.809-4.808 4.815 4.815 0 00-4.809-4.81zm0 13.091c-4.567 0-8.281-3.715-8.281-8.281 0-4.567 3.714-8.283 8.281-8.283 4.565 0 8.281 3.716 8.281 8.283 0 4.566-3.715 8.281-8.281 8.281zm19.635-13.09a4.816 4.816 0 00-4.81 4.81 4.814 4.814 0 004.81 4.807 4.814 4.814 0 004.809-4.808 4.811 4.811 0 00-4.809-4.81zm0 13.09c-4.566 0-8.281-3.715-8.281-8.281 0-4.567 3.715-8.283 8.281-8.283 4.566 0 8.282 3.716 8.282 8.283 0 4.566-3.715 8.281-8.282 8.281zm0 9.885c-4.566 0-8.282-3.715-8.282-8.281h3.473a4.814 4.814 0 004.809 4.808 4.814 4.814 0 004.809-4.808h3.473c0 4.565-3.715 8.281-8.282 8.281zm-34.462-9.841h3.473V2.704h-3.473v21.95z" fill="#0D6FFB"/><path fill-rule="evenodd" clip-rule="evenodd" d="M112.835 5.148a2.448 2.448 0 01-2.45 2.45 2.448 2.448 0 01-1.732-4.182 2.448 2.448 0 013.464 0c.46.46.718 1.083.718 1.732zM41.998 6.27l.752 1.013c.594.875 1.07 1.823 1.416 2.822h-4.248a7.228 7.228 0 00-6.329-3.703c-3.982 0-7.258 3.262-7.258 7.273 0 4.01 3.232 7.272 7.258 7.272a7.282 7.282 0 006.328-3.702h4.249c-1.46 4.408-5.664 7.58-10.577 7.58a11.158 11.158 0 01-9.027-4.584 13.125 13.125 0 01-11.418 6.612C5.886 26.853 0 20.947 0 13.675 0 6.402 5.886.496 13.188.496a13.123 13.123 0 0111.417 6.611c2.036-2.776 5.311-4.584 9.029-4.584a11.187 11.187 0 018.364 3.747zM13.143 22.886c5.134 0 9.294-4.143 9.294-9.256 0-5.112-4.16-9.299-9.294-9.299-5.089 0-9.293 4.143-9.293 9.255 0 5.113 4.16 9.3 9.294 9.3h-.001z" fill="#212529"/></svg>