<svg width="32" height="32" fill="none" xmlns="http://www.w3.org/2000/svg"><path d="M0 16C0 2.824 2.824 0 16 0s16 2.824 16 16-2.824 16-16 16S0 29.176 0 16z" fill="url(#paint0_linear_835_880)"/><path d="M11.075 3.5c4.274.053 10.2 7.001 12.848 11.8 1.94-1.94 3.015-3.75 3.146-5.061 1.154.21 2.203.918 2.229 2.176.052 1.626-1.416 3.907-3.88 6.162 1.1 2.936 1.232 5.375.183 6.502-.472.472-1.101.63-1.783.63.078-1.547-.289-3.278-.97-5.06-4.72 3.408-10.514 5.61-13.975 5.453-1.154-.053-2.046-.367-2.57-.997-.734-.838-.42-1.782-.367-1.913 4.85.734 11.51-2.675 15.443-5.664-3.303-6.004-9.15-11.537-12.69-11.537.105-1.494.892-2.517 2.386-2.49z" fill="url(#paint1_radial_835_880)"/><path d="M21.589 28.75c-4.431 0-10.121-6.45-12.717-10.645-1.809 1.73-4.64 5.217-3.094 7.157-.236-.262-2.412-3.015-2.464-3.12-1.023-1.756.524-4.667 3.644-7.577-1.101-2.465-1.547-4.221-1.547-5.559 0-2.674 1.684-3.882 3.33-5.217-1.416 2.045.105 6.135 1.154 8.39 4.116-2.963 9.99-5.48 13.87-5.48 1.468 0 2.596.288 3.487 1.416l1.967 2.464c-3.33-2.857-13.032 1.836-17.384 5.035 2.648 4.169 10.095 12.769 14.027 9.884-.943 1.075-2.857 3.252-4.273 3.252z" fill="url(#paint2_radial_835_880)"/><path d="M5.857 25.341l-.079-.078.079.078z" fill="#fff"/><defs><radialGradient id="paint1_radial_835_880" cx="0" cy="0" r="1" gradientUnits="userSpaceOnUse" gradientTransform="rotate(129.255 7.072 13.256) scale(14.1639 14.1543)"><stop stop-color="#0E012B"/><stop offset=".246" stop-color="#0E012B"/><stop offset=".555" stop-color="#0E155A"/><stop offset="1" stop-color="#172A80"/></radialGradient><radialGradient id="paint2_radial_835_880" cx="0" cy="0" r="1" gradientUnits="userSpaceOnUse" gradientTransform="rotate(85.26 .627 13.14) scale(18.8363 22.1902)"><stop stop-color="#9DE2FF"/><stop offset=".427" stop-color="#5E97F9"/><stop offset=".847" stop-color="#0C34F0"/><stop offset=".995" stop-color="#101B4B"/></radialGradient><linearGradient id="paint0_linear_835_880" x1="32" y1="0" x2="0" y2="32" gradientUnits="userSpaceOnUse"><stop/><stop offset="1" stop-color="#1A0052"/></linearGradient></defs></svg>