<svg width="19" height="15" fill="none" xmlns="http://www.w3.org/2000/svg"><path d="M18.074 2.484a7.105 7.105 0 01-2.048.561 3.574 3.574 0 001.568-1.972c-.7.415-1.466.708-2.264.866A3.56 3.56 0 0012.727.813 3.566 3.566 0 009.255 5.19a10.118 10.118 0 01-7.349-3.725 3.564 3.564 0 001.103 4.76 3.552 3.552 0 01-1.614-.446v.045a3.568 3.568 0 002.86 3.496 3.578 3.578 0 01-1.61.061 3.57 3.57 0 003.33 2.477 7.153 7.153 0 01-4.428 1.526c-.288 0-.572-.017-.85-.05a10.091 10.091 0 005.465 1.602c6.558 0 10.144-5.433 10.144-10.145 0-.154-.003-.308-.01-.461a7.238 7.238 0 001.78-1.846z" fill="#828CA0"/></svg>