<svg width="20" height="20" data-name="Layer 1" xmlns="http://www.w3.org/2000/svg"><path d="M18.82 6.08a4.1 4.1 0 00-.71-1.85 2.54 2.54 0 00-1.79-.79c-2.51-.18-6.26-.18-6.26-.18s-3.75 0-6.26.18a2.54 2.54 0 00-1.8.79 4.12 4.12 0 00-.71 1.86 28.92 28.92 0 00-.18 3v1.42a29.24 29.24 0 00.18 3A4.1 4.1 0 002 15.39a2.93 2.93 0 002 .79c1.43.15 6.09.19 6.09.19s3.75 0 6.26-.19a2.49 2.49 0 001.79-.79 4.1 4.1 0 00.71-1.85 29.24 29.24 0 00.18-3V9.1a29.24 29.24 0 00-.21-3.02zM13 9.62l-4.79 2.61V7l2.18 1.19z" fill="#828ca0"/></svg>