<svg width="74" height="50" fill="none" xmlns="http://www.w3.org/2000/svg"><path d="M37.097 49.951c-7.823.043-15.646-.057-23.455-.47-2.54-.143-5.078-.357-7.383-1.57-1.54-.813-2.73-1.94-3.478-3.538-1.263-2.654-1.659-5.45-1.894-8.304C.388 30.177.36 24.285.623 18.406c.132-3.124.235-6.277.998-9.345.294-1.198.72-2.368 1.292-3.48 1.35-2.612 3.699-3.91 6.531-4.452C11.822.672 14.26.687 16.68.587c8.205-.328 16.425-.5 24.644-.414 6.326.071 12.667.228 18.993.542 1.952.1 3.919.129 5.783.8 2.524.912 4.403 2.453 5.416 4.95.983 2.397 1.365 4.88 1.57 7.433.573 6.934.587 13.868.118 20.802-.162 2.34-.323 4.68-.954 6.976-1.424 5.28-4.815 7.348-9.79 7.676a314.97 314.97 0 0 1-15.97.6c-3.126.028-6.267 0-9.393 0zM29.39 24.064c0 5.124 5.455 8.388 9.978 5.98 4.8-2.556 4.795-9.452-.006-12.006-4.527-2.408-9.972.898-9.972 6.026z" fill="#DD2C28"/><path d="M29.392 35.356V12.742a20668.18 20668.18 0 0 1 21.253 11.314c-7.134 3.795-14.15 7.519-21.253 11.3z" fill="#FEFDFD"/></svg>